<svg id="Layer_1" data-name="Layer 1" xmlns="http://www.w3.org/2000/svg" viewBox="0 0 76.05 98.43"><defs><style>.cls-1{font-size:52px;}.cls-1,.cls-2,.cls-3{fill:#e6e6e6;}.cls-1,.cls-2{font-family:Yellowtail-Regular, Yellowtail;}.cls-2{font-size:40px;}</style></defs><text class="cls-1" transform="translate(4.01 82.76)">AB</text><text class="cls-2" transform="translate(26.33 34.41)">_</text><path class="cls-3" d="M603.33,176.77h0a4.11,4.11,0,0,1-.42-.5l-3.61,3.61a.65.65,0,0,0,.47,1.11.65.65,0,0,0,.46-.19l3.61-3.61A3.31,3.31,0,0,1,603.33,176.77Z" transform="translate(-554.94 -143.86)"/><path class="cls-3" d="M620.94,159.21h0a.65.65,0,0,0-.57-.22,25.21,25.21,0,0,0-4.09.95,24.65,24.65,0,0,0-8,4.12,21.09,21.09,0,0,0-4.39,4.76,9.94,9.94,0,0,0-1.73,4.67,4.37,4.37,0,0,0,.72,2.77L614,165.13a.65.65,0,0,1,.92.93l-11.12,11.12a4.21,4.21,0,0,0,2.47.73h.3a9.8,9.8,0,0,0,4.66-1.73,18.62,18.62,0,0,0,2.57-2l-2.85-.46a.66.66,0,0,1-.54-.76.64.64,0,0,1,.75-.53L615,173c.34-.36.67-.73,1-1.13l-2.73-.44a.66.66,0,0,1-.53-.76.64.64,0,0,1,.75-.53l3.4.56a25.43,25.43,0,0,0,3.3-6.9,26.53,26.53,0,0,0,1-4.09A.68.68,0,0,0,620.94,159.21Z" transform="translate(-554.94 -143.86)"/></svg>